<mxfile host="app.diagrams.net" modified="2023-05-03T22:37:16.522Z" agent="Mozilla/5.0 (Windows NT 10.0; Win64; x64) AppleWebKit/537.36 (KHTML, like Gecko) Chrome/112.0.0.0 Safari/537.36" etag="OJap0bCj_7miHW9MZ8lB" version="21.2.7" type="github">
  <diagram name="Strona-1" id="sFXY9VHUyiRu_gXRxJNb">
    <mxGraphModel dx="1595" dy="660" grid="0" gridSize="10" guides="1" tooltips="1" connect="1" arrows="1" fold="1" page="0" pageScale="1" pageWidth="827" pageHeight="1169" math="0" shadow="0">
      <root>
        <mxCell id="0" />
        <mxCell id="1" parent="0" />
        <mxCell id="SDtq_LugfsXM-OYmIIg9-1" value="" style="rounded=0;whiteSpace=wrap;html=1;" vertex="1" parent="1">
          <mxGeometry x="40" y="40" width="640" height="400" as="geometry" />
        </mxCell>
        <mxCell id="SDtq_LugfsXM-OYmIIg9-2" value="" style="endArrow=none;html=1;rounded=0;" edge="1" parent="1">
          <mxGeometry width="50" height="50" relative="1" as="geometry">
            <mxPoint x="120" y="440" as="sourcePoint" />
            <mxPoint x="120" y="40" as="targetPoint" />
          </mxGeometry>
        </mxCell>
        <mxCell id="SDtq_LugfsXM-OYmIIg9-3" value="" style="endArrow=none;html=1;rounded=0;entryX=0.101;entryY=-0.008;entryDx=0;entryDy=0;entryPerimeter=0;exitX=0.25;exitY=1.001;exitDx=0;exitDy=0;exitPerimeter=0;" edge="1" parent="1" source="SDtq_LugfsXM-OYmIIg9-1">
          <mxGeometry width="50" height="50" relative="1" as="geometry">
            <mxPoint x="200" y="450" as="sourcePoint" />
            <mxPoint x="200" y="40" as="targetPoint" />
          </mxGeometry>
        </mxCell>
        <mxCell id="SDtq_LugfsXM-OYmIIg9-4" value="" style="endArrow=none;html=1;rounded=0;entryX=0.101;entryY=-0.008;entryDx=0;entryDy=0;entryPerimeter=0;" edge="1" parent="1">
          <mxGeometry width="50" height="50" relative="1" as="geometry">
            <mxPoint x="279.5112612612613" y="257" as="sourcePoint" />
            <mxPoint x="280" y="40" as="targetPoint" />
          </mxGeometry>
        </mxCell>
        <mxCell id="SDtq_LugfsXM-OYmIIg9-5" value="" style="endArrow=none;html=1;rounded=0;entryX=0.101;entryY=-0.008;entryDx=0;entryDy=0;entryPerimeter=0;" edge="1" parent="1">
          <mxGeometry width="50" height="50" relative="1" as="geometry">
            <mxPoint x="360" y="361" as="sourcePoint" />
            <mxPoint x="360" y="40" as="targetPoint" />
          </mxGeometry>
        </mxCell>
        <mxCell id="SDtq_LugfsXM-OYmIIg9-6" value="" style="endArrow=none;html=1;rounded=0;entryX=0.101;entryY=-0.008;entryDx=0;entryDy=0;entryPerimeter=0;" edge="1" parent="1">
          <mxGeometry width="50" height="50" relative="1" as="geometry">
            <mxPoint x="440.4837662337661" y="189" as="sourcePoint" />
            <mxPoint x="440" y="40" as="targetPoint" />
          </mxGeometry>
        </mxCell>
        <mxCell id="SDtq_LugfsXM-OYmIIg9-7" value="" style="endArrow=none;html=1;rounded=0;entryX=0.101;entryY=-0.008;entryDx=0;entryDy=0;entryPerimeter=0;" edge="1" parent="1">
          <mxGeometry width="50" height="50" relative="1" as="geometry">
            <mxPoint x="519.9999999999998" y="175" as="sourcePoint" />
            <mxPoint x="520" y="40" as="targetPoint" />
          </mxGeometry>
        </mxCell>
        <mxCell id="SDtq_LugfsXM-OYmIIg9-8" value="" style="endArrow=none;html=1;rounded=0;entryX=0.875;entryY=0;entryDx=0;entryDy=0;entryPerimeter=0;" edge="1" parent="1" target="SDtq_LugfsXM-OYmIIg9-1">
          <mxGeometry width="50" height="50" relative="1" as="geometry">
            <mxPoint x="599.9999999999998" y="152" as="sourcePoint" />
            <mxPoint x="600" y="37" as="targetPoint" />
          </mxGeometry>
        </mxCell>
        <mxCell id="SDtq_LugfsXM-OYmIIg9-9" value="" style="endArrow=none;html=1;rounded=0;" edge="1" parent="1">
          <mxGeometry width="50" height="50" relative="1" as="geometry">
            <mxPoint x="678.5305077839121" y="239.00010187300086" as="sourcePoint" />
            <mxPoint x="680" y="40" as="targetPoint" />
          </mxGeometry>
        </mxCell>
        <mxCell id="SDtq_LugfsXM-OYmIIg9-10" value="" style="endArrow=none;html=1;rounded=0;exitX=-0.003;exitY=0.775;exitDx=0;exitDy=0;exitPerimeter=0;" edge="1" parent="1">
          <mxGeometry width="50" height="50" relative="1" as="geometry">
            <mxPoint x="40" y="280" as="sourcePoint" />
            <mxPoint x="680" y="281" as="targetPoint" />
          </mxGeometry>
        </mxCell>
        <mxCell id="SDtq_LugfsXM-OYmIIg9-11" value="" style="endArrow=none;html=1;rounded=0;exitX=-0.003;exitY=0.775;exitDx=0;exitDy=0;exitPerimeter=0;" edge="1" parent="1">
          <mxGeometry width="50" height="50" relative="1" as="geometry">
            <mxPoint x="40" y="200" as="sourcePoint" />
            <mxPoint x="680" y="201" as="targetPoint" />
          </mxGeometry>
        </mxCell>
        <mxCell id="SDtq_LugfsXM-OYmIIg9-12" value="" style="endArrow=none;html=1;rounded=0;exitX=-0.003;exitY=0.775;exitDx=0;exitDy=0;exitPerimeter=0;" edge="1" parent="1">
          <mxGeometry width="50" height="50" relative="1" as="geometry">
            <mxPoint x="40" y="120" as="sourcePoint" />
            <mxPoint x="680" y="121" as="targetPoint" />
          </mxGeometry>
        </mxCell>
        <mxCell id="SDtq_LugfsXM-OYmIIg9-13" value="" style="endArrow=none;html=1;rounded=0;exitX=-0.003;exitY=0.775;exitDx=0;exitDy=0;exitPerimeter=0;" edge="1" parent="1">
          <mxGeometry width="50" height="50" relative="1" as="geometry">
            <mxPoint x="40" y="360" as="sourcePoint" />
            <mxPoint x="680" y="361" as="targetPoint" />
          </mxGeometry>
        </mxCell>
        <mxCell id="SDtq_LugfsXM-OYmIIg9-14" value="0" style="text;html=1;align=center;verticalAlign=middle;resizable=0;points=[];autosize=1;strokeColor=none;fillColor=none;" vertex="1" parent="1">
          <mxGeometry x="29" y="440" width="25" height="26" as="geometry" />
        </mxCell>
        <mxCell id="SDtq_LugfsXM-OYmIIg9-29" value="&lt;b&gt;Czas pracy sieci cieplnej &lt;i&gt;n &lt;/i&gt;[h]&lt;/b&gt;" style="text;html=1;align=center;verticalAlign=middle;resizable=0;points=[];autosize=1;strokeColor=none;fillColor=none;" vertex="1" parent="1">
          <mxGeometry x="264" y="476" width="189" height="26" as="geometry" />
        </mxCell>
        <mxCell id="SDtq_LugfsXM-OYmIIg9-30" value="&lt;b&gt;Obciążenie cieplne&amp;nbsp;&lt;span data-darkreader-inline-border=&quot;&quot; style=&quot;border-color: var(--darkreader-border--border-color); font-size: 8px; --darkreader-inline-border:var(--darkreader-border--darkreader-border--border-color);&quot;&gt;ΣQ [MW]&lt;/span&gt;&lt;br&gt;&amp;nbsp;&lt;/b&gt;" style="text;html=1;align=center;verticalAlign=middle;resizable=0;points=[];autosize=1;strokeColor=none;fillColor=none;rotation=270;" vertex="1" parent="1">
          <mxGeometry x="-75" y="216" width="162" height="41" as="geometry" />
        </mxCell>
        <mxCell id="SDtq_LugfsXM-OYmIIg9-34" value="" style="endArrow=none;html=1;rounded=0;" edge="1" parent="1">
          <mxGeometry width="50" height="50" relative="1" as="geometry">
            <mxPoint x="279.53937007874015" y="340.03937007874015" as="sourcePoint" />
            <mxPoint x="280" y="282" as="targetPoint" />
          </mxGeometry>
        </mxCell>
        <mxCell id="SDtq_LugfsXM-OYmIIg9-35" value="" style="endArrow=none;html=1;rounded=0;" edge="1" parent="1">
          <mxGeometry width="50" height="50" relative="1" as="geometry">
            <mxPoint x="359.77528072351424" y="330.0056144702811" as="sourcePoint" />
            <mxPoint x="360" y="279" as="targetPoint" />
          </mxGeometry>
        </mxCell>
        <mxCell id="SDtq_LugfsXM-OYmIIg9-37" value="" style="endArrow=none;html=1;rounded=0;" edge="1" parent="1">
          <mxGeometry width="50" height="50" relative="1" as="geometry">
            <mxPoint x="599.9999999999998" y="340.0000000000001" as="sourcePoint" />
            <mxPoint x="600" y="281" as="targetPoint" />
          </mxGeometry>
        </mxCell>
        <mxCell id="SDtq_LugfsXM-OYmIIg9-39" value="" style="endArrow=none;html=1;rounded=0;" edge="1" parent="1">
          <mxGeometry width="50" height="50" relative="1" as="geometry">
            <mxPoint x="519.5" y="406.5" as="sourcePoint" />
            <mxPoint x="519.5199618380735" y="357.4999634133419" as="targetPoint" />
          </mxGeometry>
        </mxCell>
        <mxCell id="SDtq_LugfsXM-OYmIIg9-40" value="" style="endArrow=none;html=1;rounded=0;" edge="1" parent="1">
          <mxGeometry width="50" height="50" relative="1" as="geometry">
            <mxPoint x="359.9999999999998" y="413.4999999999999" as="sourcePoint" />
            <mxPoint x="360" y="352" as="targetPoint" />
          </mxGeometry>
        </mxCell>
        <mxCell id="SDtq_LugfsXM-OYmIIg9-42" value="" style="endArrow=none;html=1;rounded=0;exitX=0.375;exitY=1;exitDx=0;exitDy=0;exitPerimeter=0;" edge="1" parent="1" source="SDtq_LugfsXM-OYmIIg9-1">
          <mxGeometry width="50" height="50" relative="1" as="geometry">
            <mxPoint x="280" y="440" as="sourcePoint" />
            <mxPoint x="280" y="359" as="targetPoint" />
          </mxGeometry>
        </mxCell>
        <mxCell id="SDtq_LugfsXM-OYmIIg9-44" value="" style="endArrow=none;html=1;rounded=0;" edge="1" parent="1">
          <mxGeometry width="50" height="50" relative="1" as="geometry">
            <mxPoint x="360" y="440" as="sourcePoint" />
            <mxPoint x="360" y="360" as="targetPoint" />
          </mxGeometry>
        </mxCell>
        <mxCell id="SDtq_LugfsXM-OYmIIg9-46" value="" style="endArrow=none;html=1;rounded=0;" edge="1" parent="1">
          <mxGeometry width="50" height="50" relative="1" as="geometry">
            <mxPoint x="440" y="440" as="sourcePoint" />
            <mxPoint x="440" y="117" as="targetPoint" />
          </mxGeometry>
        </mxCell>
        <mxCell id="SDtq_LugfsXM-OYmIIg9-48" value="" style="endArrow=none;html=1;rounded=0;" edge="1" parent="1">
          <mxGeometry width="50" height="50" relative="1" as="geometry">
            <mxPoint x="520" y="440" as="sourcePoint" />
            <mxPoint x="519" y="361" as="targetPoint" />
          </mxGeometry>
        </mxCell>
        <mxCell id="SDtq_LugfsXM-OYmIIg9-50" value="" style="endArrow=none;html=1;rounded=0;" edge="1" parent="1">
          <mxGeometry width="50" height="50" relative="1" as="geometry">
            <mxPoint x="599" y="440" as="sourcePoint" />
            <mxPoint x="600" y="361" as="targetPoint" />
          </mxGeometry>
        </mxCell>
        <mxCell id="SDtq_LugfsXM-OYmIIg9-70" value="" style="endArrow=none;html=1;rounded=0;" edge="1" parent="1" source="SDtq_LugfsXM-OYmIIg9-152">
          <mxGeometry width="50" height="50" relative="1" as="geometry">
            <mxPoint x="680" y="401.5" as="sourcePoint" />
            <mxPoint x="679.5438596491226" y="349.95614035087726" as="targetPoint" />
          </mxGeometry>
        </mxCell>
        <mxCell id="SDtq_LugfsXM-OYmIIg9-72" value="" style="endArrow=none;html=1;rounded=0;" edge="1" parent="1">
          <mxGeometry width="50" height="50" relative="1" as="geometry">
            <mxPoint x="598.5804385221682" y="406.50092428567996" as="sourcePoint" />
            <mxPoint x="599.8872180451128" y="349.8872180451127" as="targetPoint" />
          </mxGeometry>
        </mxCell>
        <mxCell id="SDtq_LugfsXM-OYmIIg9-74" value="" style="endArrow=none;html=1;rounded=0;" edge="1" parent="1">
          <mxGeometry width="50" height="50" relative="1" as="geometry">
            <mxPoint x="519" y="361" as="sourcePoint" />
            <mxPoint x="520" y="336" as="targetPoint" />
          </mxGeometry>
        </mxCell>
        <mxCell id="SDtq_LugfsXM-OYmIIg9-78" value="" style="endArrow=none;html=1;rounded=0;" edge="1" parent="1">
          <mxGeometry width="50" height="50" relative="1" as="geometry">
            <mxPoint x="360" y="355" as="sourcePoint" />
            <mxPoint x="359.9999999999998" y="350.0000000000001" as="targetPoint" />
          </mxGeometry>
        </mxCell>
        <mxCell id="SDtq_LugfsXM-OYmIIg9-80" value="" style="endArrow=none;html=1;rounded=0;" edge="1" parent="1">
          <mxGeometry width="50" height="50" relative="1" as="geometry">
            <mxPoint x="280" y="359" as="sourcePoint" />
            <mxPoint x="279.6724137931035" y="349.8275862068966" as="targetPoint" />
          </mxGeometry>
        </mxCell>
        <mxCell id="SDtq_LugfsXM-OYmIIg9-97" value="" style="endArrow=none;html=1;rounded=0;" edge="1" parent="1">
          <mxGeometry width="50" height="50" relative="1" as="geometry">
            <mxPoint x="679.4505260034502" y="340.04947399654964" as="sourcePoint" />
            <mxPoint x="678.5306115456547" y="247.99989721124416" as="targetPoint" />
          </mxGeometry>
        </mxCell>
        <mxCell id="SDtq_LugfsXM-OYmIIg9-100" value="" style="endArrow=none;html=1;rounded=0;" edge="1" parent="1">
          <mxGeometry width="50" height="50" relative="1" as="geometry">
            <mxPoint x="519.5173010380622" y="340.0173010380623" as="sourcePoint" />
            <mxPoint x="520" y="201" as="targetPoint" />
          </mxGeometry>
        </mxCell>
        <mxCell id="SDtq_LugfsXM-OYmIIg9-104" value="" style="endArrow=none;html=1;rounded=0;" edge="1" parent="1">
          <mxGeometry width="50" height="50" relative="1" as="geometry">
            <mxPoint x="359.20707524532645" y="340.79292475467344" as="sourcePoint" />
            <mxPoint x="359.5030581336209" y="338.9724767974112" as="targetPoint" />
          </mxGeometry>
        </mxCell>
        <mxCell id="SDtq_LugfsXM-OYmIIg9-124" value="" style="endArrow=none;html=1;rounded=0;" edge="1" parent="1">
          <mxGeometry width="50" height="50" relative="1" as="geometry">
            <mxPoint x="599" y="362" as="sourcePoint" />
            <mxPoint x="600" y="121" as="targetPoint" />
          </mxGeometry>
        </mxCell>
        <mxCell id="SDtq_LugfsXM-OYmIIg9-126" value="" style="endArrow=none;html=1;rounded=0;" edge="1" parent="1">
          <mxGeometry width="50" height="50" relative="1" as="geometry">
            <mxPoint x="520.4526342085999" y="248.00024981697595" as="sourcePoint" />
            <mxPoint x="519" y="121" as="targetPoint" />
          </mxGeometry>
        </mxCell>
        <mxCell id="SDtq_LugfsXM-OYmIIg9-132" value="" style="endArrow=none;html=1;rounded=0;" edge="1" parent="1">
          <mxGeometry width="50" height="50" relative="1" as="geometry">
            <mxPoint x="280" y="361" as="sourcePoint" />
            <mxPoint x="280" y="200" as="targetPoint" />
          </mxGeometry>
        </mxCell>
        <mxCell id="SDtq_LugfsXM-OYmIIg9-141" value="2000" style="text;html=1;align=center;verticalAlign=middle;resizable=0;points=[];autosize=1;strokeColor=none;fillColor=none;" vertex="1" parent="1">
          <mxGeometry x="176" y="440" width="45" height="26" as="geometry" />
        </mxCell>
        <mxCell id="SDtq_LugfsXM-OYmIIg9-142" value="4000" style="text;html=1;align=center;verticalAlign=middle;resizable=0;points=[];autosize=1;strokeColor=none;fillColor=none;" vertex="1" parent="1">
          <mxGeometry x="336" y="440" width="45" height="26" as="geometry" />
        </mxCell>
        <mxCell id="SDtq_LugfsXM-OYmIIg9-143" value="6000" style="text;html=1;align=center;verticalAlign=middle;resizable=0;points=[];autosize=1;strokeColor=none;fillColor=none;" vertex="1" parent="1">
          <mxGeometry x="496" y="440" width="45" height="26" as="geometry" />
        </mxCell>
        <mxCell id="SDtq_LugfsXM-OYmIIg9-144" value="n&lt;sub&gt;s&amp;nbsp;&lt;/sub&gt;= 8400 h" style="text;html=1;align=center;verticalAlign=middle;resizable=0;points=[];autosize=1;strokeColor=none;fillColor=none;" vertex="1" parent="1">
          <mxGeometry x="639" y="439" width="80" height="29" as="geometry" />
        </mxCell>
        <mxCell id="SDtq_LugfsXM-OYmIIg9-145" value="&lt;font style=&quot;font-size: 9px;&quot;&gt;n&lt;/font&gt;&lt;font style=&quot;&quot;&gt;&lt;span style=&quot;font-size: 7.5px;&quot;&gt;&lt;sub&gt;0&lt;/sub&gt;&amp;nbsp;&lt;/span&gt;&lt;font size=&quot;1&quot;&gt;= 4320 h&lt;/font&gt;&lt;/font&gt;" style="text;html=1;align=center;verticalAlign=middle;resizable=0;points=[];autosize=1;strokeColor=none;fillColor=none;" vertex="1" parent="1">
          <mxGeometry x="376" y="434" width="68" height="27" as="geometry" />
        </mxCell>
        <mxCell id="SDtq_LugfsXM-OYmIIg9-146" value="0" style="text;html=1;align=center;verticalAlign=middle;resizable=0;points=[];autosize=1;strokeColor=none;fillColor=none;" vertex="1" parent="1">
          <mxGeometry x="12" y="428" width="25" height="26" as="geometry" />
        </mxCell>
        <mxCell id="SDtq_LugfsXM-OYmIIg9-147" value="3" style="text;html=1;align=center;verticalAlign=middle;resizable=0;points=[];autosize=1;strokeColor=none;fillColor=none;" vertex="1" parent="1">
          <mxGeometry x="15" y="348" width="25" height="26" as="geometry" />
        </mxCell>
        <mxCell id="SDtq_LugfsXM-OYmIIg9-148" value="6" style="text;html=1;align=center;verticalAlign=middle;resizable=0;points=[];autosize=1;strokeColor=none;fillColor=none;" vertex="1" parent="1">
          <mxGeometry x="19" y="266" width="25" height="26" as="geometry" />
        </mxCell>
        <mxCell id="SDtq_LugfsXM-OYmIIg9-149" value="9" style="text;html=1;align=center;verticalAlign=middle;resizable=0;points=[];autosize=1;strokeColor=none;fillColor=none;" vertex="1" parent="1">
          <mxGeometry x="19" y="188" width="25" height="26" as="geometry" />
        </mxCell>
        <mxCell id="SDtq_LugfsXM-OYmIIg9-150" value="12" style="text;html=1;align=center;verticalAlign=middle;resizable=0;points=[];autosize=1;strokeColor=none;fillColor=none;" vertex="1" parent="1">
          <mxGeometry x="16" y="108" width="31" height="26" as="geometry" />
        </mxCell>
        <mxCell id="SDtq_LugfsXM-OYmIIg9-151" value="15" style="text;html=1;align=center;verticalAlign=middle;resizable=0;points=[];autosize=1;strokeColor=none;fillColor=none;" vertex="1" parent="1">
          <mxGeometry x="16" y="28" width="31" height="26" as="geometry" />
        </mxCell>
        <mxCell id="SDtq_LugfsXM-OYmIIg9-153" value="" style="endArrow=none;html=1;rounded=0;" edge="1" parent="1" target="SDtq_LugfsXM-OYmIIg9-152">
          <mxGeometry width="50" height="50" relative="1" as="geometry">
            <mxPoint x="680" y="401.5" as="sourcePoint" />
            <mxPoint x="679.5438596491226" y="349.95614035087726" as="targetPoint" />
          </mxGeometry>
        </mxCell>
        <mxCell id="SDtq_LugfsXM-OYmIIg9-152" value="" style="whiteSpace=wrap;html=1;aspect=fixed;fillColor=#FF0000;" vertex="1" parent="1">
          <mxGeometry x="673" y="395" width="12" height="12" as="geometry" />
        </mxCell>
        <mxCell id="SDtq_LugfsXM-OYmIIg9-155" value="" style="whiteSpace=wrap;html=1;aspect=fixed;fillColor=#FF0000;" vertex="1" parent="1">
          <mxGeometry x="390" y="395" width="12" height="12" as="geometry" />
        </mxCell>
        <mxCell id="SDtq_LugfsXM-OYmIIg9-157" value="Lato" style="text;html=1;align=center;verticalAlign=middle;resizable=0;points=[];autosize=1;strokeColor=none;fillColor=none;" vertex="1" parent="1">
          <mxGeometry x="524" y="407" width="41" height="26" as="geometry" />
        </mxCell>
        <mxCell id="SDtq_LugfsXM-OYmIIg9-159" value="" style="endArrow=classic;startArrow=classic;html=1;rounded=0;entryX=0;entryY=1;entryDx=0;entryDy=0;exitX=1;exitY=1;exitDx=0;exitDy=0;" edge="1" parent="1" source="SDtq_LugfsXM-OYmIIg9-155" target="SDtq_LugfsXM-OYmIIg9-152">
          <mxGeometry width="50" height="50" relative="1" as="geometry">
            <mxPoint x="393" y="380" as="sourcePoint" />
            <mxPoint x="443" y="330" as="targetPoint" />
          </mxGeometry>
        </mxCell>
        <mxCell id="SDtq_LugfsXM-OYmIIg9-160" value="" style="endArrow=none;html=1;rounded=0;entryX=0;entryY=0;entryDx=0;entryDy=0;exitX=1;exitY=0;exitDx=0;exitDy=0;" edge="1" parent="1" source="SDtq_LugfsXM-OYmIIg9-155" target="SDtq_LugfsXM-OYmIIg9-152">
          <mxGeometry width="50" height="50" relative="1" as="geometry">
            <mxPoint x="529" y="376" as="sourcePoint" />
            <mxPoint x="579" y="326" as="targetPoint" />
          </mxGeometry>
        </mxCell>
        <mxCell id="SDtq_LugfsXM-OYmIIg9-161" value="" style="endArrow=none;dashed=1;html=1;dashPattern=1 3;strokeWidth=2;rounded=0;entryX=0.5;entryY=1;entryDx=0;entryDy=0;exitX=0.294;exitY=0.185;exitDx=0;exitDy=0;exitPerimeter=0;" edge="1" parent="1" source="SDtq_LugfsXM-OYmIIg9-145" target="SDtq_LugfsXM-OYmIIg9-155">
          <mxGeometry width="50" height="50" relative="1" as="geometry">
            <mxPoint x="529" y="376" as="sourcePoint" />
            <mxPoint x="579" y="326" as="targetPoint" />
          </mxGeometry>
        </mxCell>
        <mxCell id="SDtq_LugfsXM-OYmIIg9-162" value="" style="whiteSpace=wrap;html=1;aspect=fixed;fillColor=#FF0000;" vertex="1" parent="1">
          <mxGeometry x="390" y="317" width="3" height="3" as="geometry" />
        </mxCell>
        <mxCell id="SDtq_LugfsXM-OYmIIg9-163" value="" style="whiteSpace=wrap;html=1;aspect=fixed;fillColor=#FF0000;" vertex="1" parent="1">
          <mxGeometry x="254" y="261" width="3" height="3" as="geometry" />
        </mxCell>
        <mxCell id="SDtq_LugfsXM-OYmIIg9-164" value="" style="whiteSpace=wrap;html=1;aspect=fixed;fillColor=#FF0000;" vertex="1" parent="1">
          <mxGeometry x="166" y="228" width="3" height="3" as="geometry" />
        </mxCell>
        <mxCell id="SDtq_LugfsXM-OYmIIg9-165" value="" style="whiteSpace=wrap;html=1;aspect=fixed;fillColor=#FF0000;" vertex="1" parent="1">
          <mxGeometry x="87" y="182" width="3" height="3" as="geometry" />
        </mxCell>
        <mxCell id="SDtq_LugfsXM-OYmIIg9-166" value="" style="whiteSpace=wrap;html=1;aspect=fixed;fillColor=#FF0000;" vertex="1" parent="1">
          <mxGeometry x="75" y="148" width="3" height="3" as="geometry" />
        </mxCell>
        <mxCell id="SDtq_LugfsXM-OYmIIg9-167" value="" style="whiteSpace=wrap;html=1;aspect=fixed;fillColor=#FF0000;" vertex="1" parent="1">
          <mxGeometry x="47" y="132" width="3" height="3" as="geometry" />
        </mxCell>
        <mxCell id="SDtq_LugfsXM-OYmIIg9-168" value="" style="whiteSpace=wrap;html=1;aspect=fixed;fillColor=#FF0000;" vertex="1" parent="1">
          <mxGeometry x="40" y="108" width="3" height="3" as="geometry" />
        </mxCell>
        <mxCell id="SDtq_LugfsXM-OYmIIg9-169" value="" style="endArrow=none;html=1;rounded=0;exitX=0.5;exitY=1;exitDx=0;exitDy=0;entryX=0.5;entryY=0;entryDx=0;entryDy=0;" edge="1" parent="1" source="SDtq_LugfsXM-OYmIIg9-168" target="SDtq_LugfsXM-OYmIIg9-167">
          <mxGeometry width="50" height="50" relative="1" as="geometry">
            <mxPoint x="120" y="193" as="sourcePoint" />
            <mxPoint x="170" y="143" as="targetPoint" />
          </mxGeometry>
        </mxCell>
        <mxCell id="SDtq_LugfsXM-OYmIIg9-170" value="" style="endArrow=none;html=1;rounded=0;exitX=0.5;exitY=1;exitDx=0;exitDy=0;entryX=0.5;entryY=0;entryDx=0;entryDy=0;" edge="1" parent="1" source="SDtq_LugfsXM-OYmIIg9-167" target="SDtq_LugfsXM-OYmIIg9-166">
          <mxGeometry width="50" height="50" relative="1" as="geometry">
            <mxPoint x="120" y="193" as="sourcePoint" />
            <mxPoint x="170" y="143" as="targetPoint" />
          </mxGeometry>
        </mxCell>
        <mxCell id="SDtq_LugfsXM-OYmIIg9-171" value="" style="endArrow=none;html=1;rounded=0;exitX=0.5;exitY=1;exitDx=0;exitDy=0;entryX=0.5;entryY=0;entryDx=0;entryDy=0;" edge="1" parent="1" source="SDtq_LugfsXM-OYmIIg9-166" target="SDtq_LugfsXM-OYmIIg9-165">
          <mxGeometry width="50" height="50" relative="1" as="geometry">
            <mxPoint x="120" y="193" as="sourcePoint" />
            <mxPoint x="170" y="143" as="targetPoint" />
          </mxGeometry>
        </mxCell>
        <mxCell id="SDtq_LugfsXM-OYmIIg9-172" value="" style="endArrow=none;html=1;rounded=0;exitX=0.5;exitY=1;exitDx=0;exitDy=0;entryX=0.5;entryY=0;entryDx=0;entryDy=0;" edge="1" parent="1" source="SDtq_LugfsXM-OYmIIg9-165" target="SDtq_LugfsXM-OYmIIg9-164">
          <mxGeometry width="50" height="50" relative="1" as="geometry">
            <mxPoint x="156" y="240" as="sourcePoint" />
            <mxPoint x="206" y="190" as="targetPoint" />
          </mxGeometry>
        </mxCell>
        <mxCell id="SDtq_LugfsXM-OYmIIg9-173" value="" style="endArrow=none;html=1;rounded=0;exitX=0.5;exitY=1;exitDx=0;exitDy=0;entryX=0.5;entryY=0;entryDx=0;entryDy=0;" edge="1" parent="1" source="SDtq_LugfsXM-OYmIIg9-164" target="SDtq_LugfsXM-OYmIIg9-163">
          <mxGeometry width="50" height="50" relative="1" as="geometry">
            <mxPoint x="210" y="264" as="sourcePoint" />
            <mxPoint x="260" y="214" as="targetPoint" />
          </mxGeometry>
        </mxCell>
        <mxCell id="SDtq_LugfsXM-OYmIIg9-174" value="" style="endArrow=none;html=1;rounded=0;exitX=0.5;exitY=1;exitDx=0;exitDy=0;entryX=0.5;entryY=0;entryDx=0;entryDy=0;" edge="1" parent="1" source="SDtq_LugfsXM-OYmIIg9-163" target="SDtq_LugfsXM-OYmIIg9-162">
          <mxGeometry width="50" height="50" relative="1" as="geometry">
            <mxPoint x="313" y="329" as="sourcePoint" />
            <mxPoint x="363" y="279" as="targetPoint" />
          </mxGeometry>
        </mxCell>
        <mxCell id="SDtq_LugfsXM-OYmIIg9-175" value="" style="endArrow=none;html=1;rounded=0;entryX=0.5;entryY=1;entryDx=0;entryDy=0;exitX=0.5;exitY=0;exitDx=0;exitDy=0;" edge="1" parent="1" source="SDtq_LugfsXM-OYmIIg9-155" target="SDtq_LugfsXM-OYmIIg9-162">
          <mxGeometry width="50" height="50" relative="1" as="geometry">
            <mxPoint x="401" y="394" as="sourcePoint" />
            <mxPoint x="451" y="344" as="targetPoint" />
          </mxGeometry>
        </mxCell>
      </root>
    </mxGraphModel>
  </diagram>
</mxfile>
